<?xml version="1.0" standalone="no"?>
<!DOCTYPE svg PUBLIC "-//W3C//DTD SVG 20010904//EN"
 "http://www.w3.org/TR/2001/REC-SVG-20010904/DTD/svg10.dtd">
<svg version="1.0" xmlns="http://www.w3.org/2000/svg"
 width="1380.000000pt" height="805.000000pt" viewBox="0 0 1380.000000 805.000000"
 preserveAspectRatio="xMidYMid meet">
<metadata>
Created by potrace 1.16, written by Peter Selinger 2001-2019
</metadata>
<g transform="translate(0.000000,805.000000) scale(0.100000,-0.100000)"
fill="#000000" stroke="none">
<path d="M6875 6565 c-608 -67 -1172 -340 -1532 -742 -61 -68 -65 -75 -50 -90
15 -15 24 -8 124 94 127 129 219 205 369 303 568 370 1317 490 2019 324 152
-37 378 -116 515 -181 103 -48 299 -158 357 -199 20 -14 22 -14 33 6 6 12 10
23 8 25 -16 16 -202 126 -288 169 -472 242 -1037 347 -1555 291z"/>
<path d="M8937 5968 c7 -40 12 -77 9 -83 -2 -6 -32 -16 -66 -23 -34 -7 -60
-15 -58 -17 4 -5 367 -85 383 -85 5 0 -53 63 -130 140 -77 77 -142 140 -146
140 -3 0 0 -33 8 -72z"/>
<path d="M9263 5854 c13 -45 28 -136 24 -140 -3 -3 -33 -11 -66 -17 -34 -6
-61 -14 -61 -17 0 -5 383 -91 387 -86 4 4 -266 270 -278 275 -7 2 -9 -5 -6
-15z"/>
<path d="M7017 5732 c-44 -328 -249 -1903 -254 -1952 -3 -30 -3 -52 1 -49 8 7
8 8 156 1149 66 509 121 935 123 948 3 12 1 24 -2 27 -4 2 -15 -53 -24 -123z"/>
<path d="M7116 4749 c-153 -489 -276 -892 -273 -895 3 -3 24 54 47 128 23 73
84 266 135 428 51 162 157 500 235 750 79 250 145 461 147 468 3 6 1 12 -4 12
-5 0 -134 -401 -287 -891z"/>
<path d="M10739 5491 c-27 -27 -31 -28 -69 -19 -21 6 -50 8 -63 4 -24 -6 -47
-43 -47 -76 0 -18 -3 -18 -37 -6 -44 15 -74 8 -97 -26 -23 -33 -20 -59 18
-132 19 -37 40 -91 46 -121 6 -30 12 -55 13 -55 1 0 25 9 52 19 35 13 50 24
50 37 0 20 -22 23 -62 10 -20 -6 -23 -4 -23 18 0 32 30 60 107 98 56 27 69 30
125 25 35 -3 74 -8 88 -12 21 -5 29 1 55 40 17 25 34 45 38 45 4 0 -4 -17 -18
-37 -35 -52 -32 -73 16 -106 60 -42 64 -63 30 -165 -16 -48 -28 -88 -28 -89 1
-1 14 -4 30 -8 25 -7 27 -5 27 26 1 110 113 196 188 143 13 -9 26 -13 29 -10
3 3 6 50 6 103 1 82 -3 105 -21 139 -39 75 -109 119 -210 131 -33 4 -70 16
-90 30 -51 34 -115 32 -153 -6z"/>
<path d="M2825 5236 c-94 -30 -159 -87 -171 -152 -33 -178 88 -357 244 -358
l52 0 0 -39 0 -38 38 40 c35 37 41 40 69 32 40 -11 67 -26 82 -45 12 -14 21
-10 73 31 33 26 69 61 80 78 11 16 32 40 46 51 l25 22 66 -43 c36 -23 84 -50
106 -60 l40 -16 -33 -15 c-23 -9 -32 -19 -30 -31 4 -21 37 -20 80 1 28 14 28
14 28 -15 0 -37 15 -30 23 10 6 28 8 28 52 23 47 -5 179 24 173 38 -5 12 -268
226 -323 263 -54 35 -151 57 -257 57 -86 0 -88 1 -88 24 0 34 -40 88 -85 113
-71 39 -212 54 -290 29z"/>
<path d="M10217 5153 c-8 -21 -36 -84 -61 -140 -37 -85 -42 -103 -28 -103 9 0
25 -7 35 -14 21 -16 14 -37 -22 -70 -25 -23 -27 -36 -6 -36 9 0 24 20 36 47
19 44 19 50 5 75 -9 14 -16 35 -16 46 0 30 35 67 65 70 34 3 47 11 42 25 -2 7
2 25 10 40 13 25 12 32 -4 59 -26 44 -37 44 -56 1z"/>
<path d="M9923 4955 c-34 -110 -122 -395 -197 -634 -75 -239 -135 -438 -133
-444 1 -5 53 152 115 349 62 198 151 481 197 629 47 149 84 277 82 285 -1 8
-30 -76 -64 -185z"/>
<path d="M10046 4763 c-14 -29 -15 -38 -4 -44 7 -5 16 -9 19 -9 14 0 19 -33 8
-47 -10 -11 -15 -10 -34 7 l-22 21 -13 -31 c-9 -22 -10 -34 -2 -42 13 -13 -6
-48 -23 -41 -8 2 -44 -66 -95 -179 -45 -101 -95 -206 -111 -235 -15 -28 -83
-172 -149 -320 -67 -147 -123 -269 -125 -271 -1 -2 -350 38 -775 88 -425 50
-778 89 -784 86 -6 -2 -4 -5 4 -5 73 -5 1433 -170 1437 -175 4 -3 -370 -6
-830 -6 -586 0 -837 -3 -837 -11 0 -23 23 -51 52 -63 23 -10 212 -12 881 -9
469 2 861 6 873 8 38 8 61 40 112 150 27 61 114 252 192 425 78 173 178 394
222 490 44 96 82 181 85 188 3 7 -3 12 -15 12 -12 0 -24 5 -27 10 -4 6 -11 7
-17 4 -6 -4 -8 1 -3 15 10 33 1 25 -19 -16z"/>
<path d="M11025 4670 c-39 -41 -152 -96 -226 -111 l-59 -12 0 -43 c0 -40 -2
-44 -26 -44 -14 0 -168 -71 -342 -157 -174 -87 -318 -158 -320 -159 -2 -1 -68
-314 -115 -546 l-21 -108 -163 0 c-108 0 -163 -4 -163 -11 0 -7 129 -10 420
-8 231 1 422 0 424 -2 10 -11 38 -176 43 -257 l6 -93 -779 2 c-428 0 -833 -2
-899 -6 -81 -5 -209 -2 -393 10 -168 11 -277 14 -282 9 -27 -27 -40 -249 -21
-350 15 -78 14 -153 -2 -234 -20 -100 -30 -220 -19 -220 5 0 14 48 20 108 7
59 17 124 23 145 l10 39 217 -6 c119 -4 297 -9 395 -12 124 -4 177 -2 177 5 0
7 27 11 71 11 57 0 74 4 84 17 12 17 15 17 50 0 33 -16 88 -17 647 -18 337 0
710 3 830 7 128 4 218 3 218 -2 -1 -30 -32 -44 -126 -59 -54 -8 -159 -27 -233
-40 -74 -14 -139 -25 -146 -25 -7 0 -10 13 -8 33 l3 32 -16 -37 c-17 -39 -21
-40 -146 -63 l-38 -7 -1 48 -1 49 -15 -50 c-8 -27 -17 -51 -18 -53 -4 -4 -117
-31 -132 -32 -7 0 -10 6 -7 14 12 30 -146 54 -406 61 -165 4 -171 3 -73 -16
40 -8 64 -21 103 -56 l51 -46 116 12 c115 12 162 9 84 -4 -25 -4 -45 -14 -51
-25 -14 -25 -13 -40 3 -40 7 0 24 -40 40 -93 23 -79 27 -109 27 -219 l0 -128
-30 0 c-16 0 -30 -3 -30 -6 0 -4 14 -29 30 -56 17 -26 30 -54 30 -61 0 -9 42
-12 168 -13 92 0 184 -4 205 -8 l37 -7 -60 -86 c-33 -48 -60 -89 -60 -92 0 -7
22 -8 453 -17 175 -3 317 -9 315 -13 -2 -3 -148 -224 -326 -490 -178 -266
-326 -490 -329 -497 -3 -8 1 -14 9 -14 8 0 163 223 347 500 183 275 335 501
339 503 4 1 207 -2 452 -9 l445 -11 29 31 c16 17 50 54 76 81 25 28 80 77 121
109 41 33 78 63 82 66 7 6 -3 93 -63 555 -10 83 -26 209 -35 280 l-16 131 41
89 c23 50 47 104 55 120 7 17 30 136 50 266 l37 235 -81 80 c-44 43 -81 84
-81 90 0 7 8 15 17 18 11 5 30 -7 60 -36 l43 -42 0 35 c0 23 7 42 20 54 20 18
20 17 20 -33 0 -80 17 -61 30 33 12 84 11 90 -24 248 -41 182 -30 165 -171
263 -44 30 -108 75 -142 99 -34 24 -90 53 -125 65 -143 48 -557 180 -562 180
-18 0 0 -26 49 -73 30 -28 55 -57 55 -64 0 -17 -68 -181 -88 -212 -35 -54
-149 -207 -166 -221 -16 -12 -20 -11 -37 10 -10 14 -41 66 -69 116 -38 68 -50
100 -50 132 0 23 -5 42 -10 42 -7 0 -10 -28 -9 -73 1 -59 -3 -82 -23 -122 -14
-28 -35 -76 -48 -107 -12 -32 -26 -58 -30 -58 -17 0 -17 26 0 50 32 47 93 171
87 177 -4 3 -14 -7 -22 -23 -9 -16 -31 -55 -49 -87 l-32 -58 -52 59 c-28 33
-77 96 -110 141 l-59 83 86 81 c47 44 91 86 96 92 6 7 28 18 50 25 91 29 200
120 252 207 32 55 26 73 -12 33z m1064 -1206 c24 -19 31 -34 31 -60 0 -34 -28
-74 -52 -74 -6 0 1 -13 16 -28 24 -26 25 -30 11 -42 -14 -12 -26 -4 -91 61
-41 40 -74 77 -74 82 0 4 15 23 33 41 52 54 81 58 126 20z m-1545 -56 c19 -87
36 -198 36 -251 0 -34 -3 -38 -22 -35 -21 3 -24 10 -30 93 -3 50 -14 126 -22
170 -20 99 -20 95 3 95 14 0 21 -15 35 -72z m214 59 c19 -22 33 -139 30 -242
l-3 -100 -76 -3 -76 -3 -7 88 c-6 78 -20 162 -41 246 l-7 27 85 0 c56 0 88 -4
95 -13z m1197 -127 c18 -20 18 -21 -13 -53 -35 -36 -39 -47 -17 -47 8 0 22 11
31 25 18 28 44 33 44 10 0 -49 -68 -93 -111 -71 -21 10 -27 7 -61 -30 -21 -23
-38 -44 -38 -48 0 -16 31 -3 46 19 9 14 23 25 30 25 22 0 16 -39 -11 -65 -58
-59 -160 -2 -139 79 12 48 69 70 115 46 20 -11 28 3 9 15 -5 3 -10 20 -10 36
0 64 85 104 125 59z m-486 -435 c15 -13 17 -23 11 -46 -18 -61 -120 -172 -154
-167 -32 5 -61 54 -60 103 2 81 65 140 142 132 24 -3 51 -12 61 -22z"/>
<path d="M2440 4381 c-85 -28 -172 -95 -234 -180 -47 -65 -100 -161 -88 -161
6 0 25 26 42 58 205 363 518 371 856 21 72 -75 99 -128 75 -152 -6 -6 -11 -16
-11 -22 1 -5 9 0 20 13 14 17 17 29 10 51 -14 50 -27 66 -134 168 -88 84 -121
109 -209 153 -103 52 -107 53 -203 56 -55 2 -110 0 -124 -5z"/>
<path d="M3120 4293 c0 -30 74 -137 120 -173 29 -23 52 -32 100 -37 l61 -6 -3
43 c-3 43 -3 43 -55 56 -75 19 -131 50 -180 97 -37 36 -43 38 -43 20z"/>
<path d="M6895 3845 c-98 -218 -181 -398 -185 -400 -3 -2 -496 54 -1096 124
-599 71 -1091 127 -1093 125 -2 -2 -2 -6 0 -8 5 -4 1986 -236 2017 -236 12 0
22 -4 22 -8 0 -5 -188 -12 -417 -16 -230 -4 -419 -9 -422 -12 -2 -2 -2 -6 0
-8 5 -6 954 13 984 19 14 3 31 28 57 87 20 46 93 209 163 363 163 358 166 365
157 365 -4 0 -88 -178 -187 -395z"/>
<path d="M3615 4078 c12 -34 155 -546 155 -554 0 -5 -32 -28 -70 -52 -39 -24
-70 -48 -70 -54 0 -14 16 -7 99 47 41 25 71 51 68 58 -2 7 -40 137 -83 289
-48 169 -84 278 -91 278 -7 0 -10 -6 -8 -12z"/>
<path d="M2863 3995 c-172 -53 -297 -225 -368 -508 -20 -77 -54 -185 -76 -240
-124 -314 -357 -645 -518 -737 -55 -32 -74 -50 -53 -50 15 0 125 75 174 119
41 37 128 143 180 221 l16 25 10 -25 c5 -14 60 -136 121 -272 61 -135 111
-253 111 -261 0 -57 99 -294 162 -384 55 -81 124 -91 260 -39 72 27 66 32 -49
40 -94 6 -131 22 -166 68 -42 56 -230 431 -336 670 l-101 227 34 53 c103 162
196 380 250 589 19 75 43 154 52 175 l18 39 7 -138 c4 -75 9 -143 12 -151 4
-9 45 -24 106 -37 56 -13 101 -25 101 -29 0 -3 -38 -26 -83 -51 -45 -25 -82
-50 -82 -56 0 -10 555 -503 568 -503 23 0 -18 39 -263 255 -148 131 -270 241
-270 244 0 3 40 30 89 58 l89 52 11 64 c6 35 11 76 11 91 0 51 -17 17 -29 -58
l-12 -74 -57 14 c-31 7 -80 18 -108 25 l-51 12 -7 75 c-3 41 -6 116 -6 165 0
84 2 94 31 139 83 129 225 205 356 190 33 -3 44 -2 39 7 -10 15 -120 13 -173
-4z"/>
<path d="M2950 3795 c0 -5 97 -281 145 -415 13 -36 62 -174 109 -307 l85 -242
-11 -86 c-9 -71 -13 -85 -27 -81 -9 3 -67 14 -130 26 -63 12 -122 25 -131 30
-9 5 -34 54 -56 109 -21 56 -45 101 -51 101 -13 0 -9 -13 53 -163 25 -60 31
-68 63 -77 127 -33 805 -146 1196 -200 127 -17 244 -33 260 -36 l31 -4 -17
-103 c-48 -287 -50 -527 -5 -527 16 0 76 53 76 67 0 6 -12 15 -26 22 l-26 12
5 257 c3 141 8 267 12 280 7 21 12 22 112 22 86 0 111 4 137 19 17 10 69 27
116 36 90 18 131 37 250 120 41 29 81 50 88 48 7 -3 12 -21 12 -42 0 -46 -42
-113 -96 -153 l-38 -28 157 0 c95 0 158 -4 162 -10 7 -11 539 -16 1025 -9 157
2 337 4 400 4 l115 0 12 -60 c6 -33 15 -97 18 -142 4 -46 12 -83 18 -83 13 0
2 142 -19 246 -14 68 -15 90 -4 157 18 110 16 298 -4 373 -11 44 -16 107 -16
218 l0 156 -83 0 c-48 0 -102 -6 -128 -15 -39 -13 -194 -15 -1247 -13 l-1202
3 0 -152 c0 -96 -4 -153 -10 -155 -7 -2 -6 -15 4 -38 22 -54 31 -242 15 -346
-7 -49 -12 -95 -10 -101 3 -18 -44 -16 -103 5 -48 17 -49 18 -66 82 -19 72
-76 220 -91 235 -16 16 -11 -197 6 -245 19 -55 19 -58 -7 -54 -13 2 -113 18
-223 34 -110 17 -200 32 -201 33 -1 1 -22 56 -48 122 l-47 120 -10 460 c-6
253 -12 461 -13 462 -2 2 -23 -6 -48 -17 -125 -55 -327 -42 -443 30 -33 20
-45 24 -45 15z m2076 -1025 c63 -27 84 -47 84 -80 0 -33 -20 -52 -85 -82 -43
-19 -66 -22 -165 -22 -160 1 -250 38 -250 104 0 45 47 75 165 104 48 12 204
-3 251 -24z"/>
<path d="M3530 3521 c0 -7 20 -40 44 -75 41 -56 50 -63 98 -75 29 -8 58 -16
64 -20 7 -4 -18 -88 -77 -251 -89 -247 -96 -270 -81 -270 9 0 192 504 192 527
0 6 -31 19 -70 29 -66 17 -72 21 -106 71 -41 59 -64 82 -64 64z"/>
<path d="M8377 3308 c-125 -13 -166 -32 -119 -57 81 -43 954 -44 1067 -1 32
12 32 28 1 40 -74 28 -731 41 -949 18z m891 -24 c52 -8 54 -20 5 -28 -78 -13
-736 -18 -862 -7 -174 16 -180 26 -25 40 103 10 807 6 882 -5z"/>
<path d="M9738 3310 c-100 -16 -124 -40 -63 -65 81 -34 519 -36 621 -3 50 17
50 39 -1 57 -48 17 -467 25 -557 11z m497 -21 c41 -6 75 -15 75 -19 0 -20
-173 -32 -375 -27 -205 5 -291 16 -252 32 58 24 420 33 552 14z"/>
<path d="M8895 2493 c-205 -17 -315 -39 -301 -62 16 -25 201 -47 479 -57 220
-8 225 -6 122 75 l-65 51 -97 -2 c-54 -1 -116 -3 -138 -5z"/>
<path d="M6691 2222 c-1 -126 3 -221 8 -218 12 8 30 83 37 162 7 75 -8 196
-30 247 -13 29 -14 9 -15 -191z"/>
<path d="M5560 2342 c0 -40 -16 -46 -295 -107 -148 -32 -151 -33 -139 -45 6
-6 80 6 193 30 214 46 269 50 297 19 19 -21 22 -22 309 -16 301 7 503 25 551
50 l27 14 -25 17 c-45 29 -233 46 -585 53 l-333 6 0 -21z"/>
<path d="M5480 2108 c-39 -16 -327 -98 -345 -98 -8 0 -15 -7 -15 -15 0 -8 2
-15 5 -15 3 0 93 25 200 56 107 30 207 54 222 52 17 -2 32 -12 38 -25 10 -23
13 -23 190 -23 198 0 388 14 432 31 27 11 27 11 6 19 -71 28 -674 43 -733 18z"/>
<path d="M5510 1972 c-14 -2 -29 -8 -34 -13 -6 -5 70 -9 193 -9 112 0 220 -4
240 -10 53 -14 244 -49 332 -60 88 -11 149 1 149 28 0 9 -9 23 -20 30 -12 7
-18 17 -15 22 6 9 -785 20 -845 12z"/>
<path d="M3160 1858 c-1 -28 -71 -521 -75 -528 -4 -6 -121 -10 -315 -10 l-309
0 5 -87 c2 -49 7 -190 10 -314 l6 -227 107 -16 c58 -9 153 -23 211 -30 l105
-13 -175 -2 c-96 0 -254 -3 -350 -6 -112 -4 -167 -2 -154 4 31 14 132 79 138
90 4 5 -9 38 -27 73 -180 345 -493 567 -907 644 -130 24 -418 29 -580 11 -118
-14 -308 -46 -318 -53 -17 -12 303 -358 321 -347 5 3 7 1 3 -5 -3 -6 28 -41
70 -79 72 -65 105 -88 90 -65 -3 6 -2 13 3 17 6 3 8 -3 6 -14 -2 -14 13 -32
53 -64 167 -131 363 -229 562 -283 94 -25 299 -24 400 3 69 18 94 19 295 13
614 -19 5157 -20 5975 -1 469 10 581 17 554 34 -36 22 -1961 46 -3658 47 -512
0 -933 3 -937 7 -3 5 -9 29 -11 54 l-5 46 786 7 c757 6 901 10 901 26 0 11
-321 20 -1005 26 -352 3 -652 5 -666 5 l-25 -1 -28 238 c-40 348 -29 311 -88
314 l-50 3 -85 221 -85 221 -142 7 c-273 13 -511 26 -558 31 -27 3 -48 4 -48
3z m-1650 -701 l75 -152 239 -92 c132 -51 241 -91 242 -90 1 2 -28 47 -188
291 -54 81 -65 116 -39 116 6 0 31 -33 57 -72 167 -260 227 -347 235 -342 5 3
6 -1 4 -8 -4 -9 21 -23 76 -44 57 -21 84 -37 90 -51 7 -20 5 -20 -24 -12 -18
5 -60 20 -94 33 l-62 24 -196 -64 c-108 -35 -201 -62 -206 -59 -28 18 5 35
161 86 93 29 170 56 170 59 0 3 -109 47 -243 98 l-243 94 -174 -41 c-123 -29
-177 -38 -184 -30 -19 18 16 33 153 63 72 16 128 33 124 37 -4 4 -39 18 -78
32 -154 56 -559 217 -569 227 -6 6 -7 13 0 20 11 11 23 6 409 -143 149 -58
272 -103 274 -101 1 1 -24 60 -58 129 -34 70 -59 131 -55 136 15 24 35 -3 104
-144z"/>
<path d="M8225 1703 c-92 -88 -237 -186 -357 -243 -360 -169 -783 -202 -1262
-99 -82 18 -100 19 -107 8 -15 -25 -4 -34 67 -51 305 -75 661 -88 932 -32 312
64 604 215 796 413 42 42 47 52 36 66 -7 8 -15 15 -19 15 -3 -1 -42 -35 -86
-77z"/>
<path d="M6081 1493 c0 -11 323 -221 327 -213 1 3 -11 39 -27 78 l-30 72 37
16 c94 40 95 38 -18 45 -151 9 -290 10 -289 2z"/>
<path d="M11091 891 c-11 -16 -99 -123 -196 -237 -184 -221 -185 -222 -110
-223 28 0 38 12 160 206 161 255 178 283 172 283 -3 0 -15 -13 -26 -29z"/>
<path d="M6502 830 c-98 -7 -122 -13 -110 -26 15 -14 530 -25 757 -16 242 11
297 19 231 35 -48 11 -750 17 -878 7z"/>
</g>
</svg>
